<?xml version="1.0" encoding="UTF-8"?> <svg xmlns="http://www.w3.org/2000/svg" width="59" height="275" viewBox="0 0 59 275" fill="none"> <path d="M1.5 245.257V219L29.5 246.743L57.5 219V245.257L29.5 273L1.5 245.257Z" stroke="#3E3E3E" stroke-width="2"></path> <path d="M1.5 191.257V165L29.5 192.743L57.5 165V191.257L29.5 219L1.5 191.257Z" stroke="#3E3E3E" stroke-width="2"></path> <path d="M1.5 137.257V111L29.5 138.743L57.5 111V137.257L29.5 165L1.5 137.257Z" stroke="#3E3E3E" stroke-width="2"></path> <path d="M1.5 83.2569V57L29.5 84.7431L57.5 57V83.2569L29.5 111L1.5 83.2569Z" stroke="#3E3E3E" stroke-width="2"></path> <path d="M1.5 29.2569V3L29.5 30.7431L57.5 3V29.2569L29.5 57L1.5 29.2569Z" stroke="#3E3E3E" stroke-width="2"></path> </svg> 