<?xml version="1.0" encoding="UTF-8"?> <svg xmlns="http://www.w3.org/2000/svg" id="uuid-30636fe5-e4ec-44e4-a0f8-3b24f6376c55" data-name="Слой 2" viewBox="0 0 329.58997 47.4297"> <defs> <style> .uuid-0b11ba77-75a9-49c1-b999-5d002389de95 { fill: #fff; } </style> </defs> <g id="uuid-c06eae9c-6c9a-41be-8ca0-e9849feae384" data-name="Слой 1"> <path class="uuid-0b11ba77-75a9-49c1-b999-5d002389de95" d="m40.72998,37.86262l-.32001-1.06L29.57001.74262h-14.71002L4.01996,36.80262l-.31995,1.06H0l.01001,8.85004h17.51996v-8.85004l-3.09998-.01001,1.38-4.69h12.81l1.38,4.69-3.10004.01001v8.85004h17.52002l.01001-8.85004h-3.70001Zm-23-13.27997l4.47998-13.80005.01001.02002,4.48004,13.78003h-8.97003Z"></path> <polygon class="uuid-0b11ba77-75a9-49c1-b999-5d002389de95" points="279.13995 14.29261 279.13995 10.20265 270.26001 10.20265 270.26001 19.08265 279.13995 19.08265 279.13995 28.60261 270.26001 28.60261 270.26001 37.86262 279.13995 37.85261 279.13995 33.16261 288.52997 33.16261 288.52997 46.71266 256.32996 46.71266 256.32996 37.86262 260.63 37.86262 260.63995 27.61262 260.63 10.20265 256.32996 10.20265 256.32996 .7826 288.52997 .7826 288.52997 14.29261 279.13995 14.29261"></polygon> <path class="uuid-0b11ba77-75a9-49c1-b999-5d002389de95" d="m329.58997.7826v13.51001h-9.14996v-4.08997h-4.08002v27.54999h4.08002v8.96002h-18.56v-8.95001l4.5-.01001c0-8.95001,0,0,.00995-14.5h-.00995l.00995-13.04999-4.17999.01996v4.08002h-9.38995V.7826h36.76996Z"></path> <polygon class="uuid-0b11ba77-75a9-49c1-b999-5d002389de95" points="83.45001 .74262 83.32001 9.76264 79.08997 9.88264 72.14996 31.37263 67.19 46.71266 56.39996 46.71266 51.07996 30.3426 44.54999 10.20265 40.26996 10.20265 40.26001 .7826 58.44 .7826 58.44 10.20265 54.63 10.20265 61.26996 30.88264 61.70996 32.25263 62.13995 30.92262 68.84998 10.21266 65.09998 10.21266 65.09998 .79261 83.45001 .74262"></polygon> <polygon class="uuid-0b11ba77-75a9-49c1-b999-5d002389de95" points="110.71039 37.86183 110.71069 32.50172 110.71069 32.50172 110.7124 10.20161 115.41083 10.2118 115.40967 14.29542 124.48309 14.29542 124.48059 .78523 87.56671 .77723 87.56531 14.29542 96.95697 14.2931 96.95447 10.21064 101.39722 10.20954 101.39795 32.32093 101.39752 32.32093 101.39752 37.86231 96.95331 37.86201 96.95618 46.71241 115.42389 46.7129 115.38617 37.86183 110.71039 37.86183"></polygon> <polygon class="uuid-0b11ba77-75a9-49c1-b999-5d002389de95" points="251.63995 .7826 251.63995 10.21266 247.54999 10.20265 241.22998 29.06263 235.32001 46.71266 225 46.71266 219.56 30.35261 219.60999 30.35261 212.92999 10.20265 208.64996 10.20265 208.64996 .7826 226.82996 .7826 226.82996 10.20265 223.20001 10.20265 229.45996 29.82264 230.28998 32.43263 231.14996 29.7226 237.34998 10.20265 233.60999 10.20265 233.60999 .7826 251.63995 .7826"></polygon> <path class="uuid-0b11ba77-75a9-49c1-b999-5d002389de95" d="m205.52673,31.02229c-.10168-1.56042-.77258-7.39905-7.65265-9.95715-7.89368-2.65894-19.26306-1.12-19.47119-7.65698,1.60779-6.36804,12.5722-4.31665,16.23828,1.10547l9.30103-.0022V.78523l-8.81891.00787-.9292,1.65662c-11.69629-5.5639-20.73938-.83057-23.96069,6.01398-2.71021,5.75916-1.30017,13.01782,6.12262,16.89331,6.89166,3.28131,12.74432,2.54016,17.9231,6.09869l-.03625.0014c.78418.64142,1.76648,1.50525.99731,3.52472-2.73059,7.17102-12.51288,1.32263-16.51587-1.98029l-8.89313.01575-.00171,13.65338,8.48206.00079.97858-1.39502c5.89935,2.39929,12.93958,3.2265,18.73218.20361,7.98956-4.42474,7.35663-12.17291,7.52753-14.45868l-.02307.00092Z"></path> <path class="uuid-0b11ba77-75a9-49c1-b999-5d002389de95" d="m165.81,12.26264c-.12-6.72003-5.92999-11.54999-18.90002-11.64001-2.79999.08002-17.41998-.47998-18.07001,11.29999-.10999,5.58002-.33997,13.35999-.01001,20.77002.09003,1.42999.07001,2.87.52002,4.89001,3.17999,8.66998,8.71002,9.35999,18,9.37,8.19.12,15.41003-1.28003,17.78003-9.75.38-1.58002.42999-3.02002.56-4.79999.39996-7.18005.38-14.25.12-20.14001Zm-15.46002,25.37c-.89001,0-1.87-.04004-2.95001-.04004-3.15997-.06-8.76001,1.27002-9.28998-4.88995l.02002-17.47003c.29999-3.26996.28998-5.51996,8.98999-5.12,7.21997-.38,9.28998.03003,9.15997,6.46002l.03003,16c-.75,4.56-2.67999,5.06-5.96002,5.06Z"></path> </g> </svg> 